<svg xmlns="http://www.w3.org/2000/svg" viewBox="0 0 64 64"><path d="M62.1059 10.9299C64.6047 8.43105 64.6047 4.37295 62.1059 1.87412C59.6071 -0.624707 55.549 -0.624707 53.0501 1.87412L32 22.9442L10.9299 1.89411C8.43105 -0.604716 4.37295 -0.604716 1.87412 1.89411C-0.624707 4.39294 -0.624707 8.45104 1.87412 10.9499L22.9442 32L1.89411 53.0701C-0.604716 55.569 -0.604716 59.6271 1.89411 62.1259C4.39294 64.6247 8.45104 64.6247 10.9499 62.1259L32 41.0558L53.0701 62.1059C55.569 64.6047 59.6271 64.6047 62.1259 62.1059C64.6247 59.6071 64.6247 55.549 62.1259 53.0501L41.0558 32L62.1059 10.9299Z" fill="currentColor"/></svg>